<mxfile host="app.diagrams.net" modified="2023-05-25T15:05:39.130Z" agent="Mozilla/5.0 (Windows NT 10.0; Win64; x64) AppleWebKit/537.36 (KHTML, like Gecko) Chrome/113.0.0.0 Safari/537.36" etag="hohjrApq7ot2aKIt6UJL" version="21.2.9" type="device">
  <diagram name="Page-1" id="wG474OFWXvd6E2WIAW7N">
    <mxGraphModel dx="2049" dy="999" grid="1" gridSize="10" guides="1" tooltips="1" connect="1" arrows="1" fold="1" page="1" pageScale="1" pageWidth="827" pageHeight="1169" math="0" shadow="0">
      <root>
        <mxCell id="0" />
        <mxCell id="1" parent="0" />
        <mxCell id="-ID0I0zZU8n9CK_9Ssc_-2" value="" style="whiteSpace=wrap;html=1;" parent="1" vertex="1">
          <mxGeometry x="143" y="105" width="540" height="960" as="geometry" />
        </mxCell>
        <mxCell id="LG56hh-U7er9lUFyQT3B-2" value="&lt;font style=&quot;font-size: 50px;&quot;&gt;Take-Out Order&lt;br&gt;Image&lt;br&gt;&lt;/font&gt;" style="rounded=0;whiteSpace=wrap;html=1;" parent="1" vertex="1">
          <mxGeometry x="140" y="106" width="541" height="478" as="geometry" />
        </mxCell>
        <mxCell id="ZJjMRW6sEvxAewBVxrIm-1" value="&lt;font style=&quot;font-size: 50px;&quot;&gt;Eat-In Order&lt;br&gt;Image&lt;br&gt;&lt;/font&gt;" style="rounded=0;whiteSpace=wrap;html=1;" vertex="1" parent="1">
          <mxGeometry x="140" y="584" width="543" height="486" as="geometry" />
        </mxCell>
      </root>
    </mxGraphModel>
  </diagram>
</mxfile>
